PathFileType	4	(X/Y/Z)	C:\Users\T490\OneDrive\Desktop\110_Internship_Tasks\Sprint GSG Position Analysis\results\sports2d_output\sprint_video_Sports2D\sprint_video_Sports2D_px_person00.trc
DataRate	CameraRate	NumFrames	NumMarkers	Units	OrigDataRate	OrigDataStartFrame	OrigNumFrames
25.0	25.0	4	22	m	25.0	0	559
Frame#	Time	Hip			RHip			RKnee			RAnkle			RBigToe			RSmallToe			RHeel			LHip			LKnee			LAnkle			LBigToe			LSmallToe			LHeel			Neck			Head			Nose			RShoulder			RElbow			RWrist			LShoulder			LElbow			LWrist			
		X1	Y1	Z1	X2	Y2	Z2	X3	Y3	Z3	X4	Y4	Z4	X5	Y5	Z5	X6	Y6	Z6	X7	Y7	Z7	X8	Y8	Z8	X9	Y9	Z9	X10	Y10	Z10	X11	Y11	Z11	X12	Y12	Z12	X13	Y13	Z13	X14	Y14	Z14	X15	Y15	Z15	X16	Y16	Z16	X17	Y17	Z17	X18	Y18	Z18	X19	Y19	Z19	X20	Y20	Z20	X21	Y21	Z21	X22	Y22	Z22
0	0.0	1903.9009117977444	500.3043396634409	0.0	1898.4691138646526	489.44068504372757	0.0	1895.753272920536	602.1517689121772	0.0	1910.690931250028	699.9256437289579	0.0	1868.5934700718203	721.6530896024127	0.0	1872.667317572983	714.8633333435697	0.0	1917.4805859956714	713.5055699273503	0.0	1903.9010247905044	489.44063938173986	0.0	1898.4689866447584	600.793906866378	0.0	1912.0484540162793	699.9255638113385	0.0	1874.0249435453904	720.2952296772843	0.0	1886.246761927266	720.2952050960969	0.0	1918.8382811360314	713.5053117417025	0.0	1898.469047609245	330.5584944956581	0.0	1878.099405183128	264.01815643884675	0.0	1867.2358032254742	300.6833336086869	0.0	1882.173350254956	355.00192071872505	0.0	1884.8892984292313	424.25829809352604	0.0	1874.0255876573804	481.2926901999249	0.0	1893.0372422854762	353.64395627044337	0.0	1898.468902550488	425.6162142725481	0.0	1907.9747913905883	489.4405108565055	0.0
1	0.04007168458781362	1902.4892083083337	499.4148667817953	0.0	1896.1335351979974	489.08266524552266	0.0	1894.6344041197308	600.658270668914	0.0	1910.315057446138	699.6984533317229	0.0	1869.5542448487479	722.6454940298546	0.0	1872.607211210774	715.3194886653814	0.0	1917.967424879129	714.3745888660756	0.0	1904.886980401597	489.2501986803902	0.0	1900.5687888954849	599.5639282571683	0.0	1913.0675001961797	700.1146263194536	0.0	1875.5152038143024	721.6449961343858	0.0	1888.025485819187	720.6763055892022	0.0	1918.774668499001	714.3492046455531	0.0	1896.3516995030086	329.68038360844355	0.0	1874.428134183186	262.73263345245886	0.0	1865.107749514867	299.73347877589316	0.0	1876.9351667849069	354.2101158455499	0.0	1879.8730248304919	423.48172696673737	0.0	1872.897810587109	481.0476360957379	0.0	1899.018243249206	351.25647435910423	0.0	1895.5951077928378	424.13295774040085	0.0	1907.0791588071802	486.2678503988441	0.0
2	0.08014336917562724	1897.5180780183186	495.40396199339443	0.0	1887.7307269942717	488.86196237722066	0.0	1889.7536824939864	595.0058454195008	0.0	1909.5367159245259	696.4489331573983	0.0	1870.6730558216882	721.8591728294755	0.0	1872.1037230463717	714.8991696749027	0.0	1918.5169384194674	713.1683056924952	0.0	1905.4590676430519	488.47072463374934	0.0	1895.060033377789	593.5612776476987	0.0	1914.6681369855828	696.7055311219478	0.0	1880.2237006144828	721.7610213580243	0.0	1894.0841504229438	720.2343249193661	0.0	1920.8318218045779	712.5396151761212	0.0	1888.439076462129	326.8556571682116	0.0	1864.6855911447228	259.7409353153631	0.0	1856.103178002327	297.60813741537424	0.0	1864.5232002412536	351.65989198838076	0.0	1866.3529456612318	421.49590143830653	0.0	1856.8868233711887	475.51766671661335	0.0	1907.5416980913847	345.8925893412964	0.0	1901.1492170551141	416.7250353496988	0.0	1908.3115020209316	481.5755302616071	0.0
3	0.12021505376344085	1888.3412049693015	489.0020604217747	0.0	1873.9330891212767	489.18652222615617	0.0	1883.2537301598177	588.0229264742409	0.0	1908.3745709731743	691.6446206114772	0.0	1869.3906956191404	718.5788083805387	0.0	1870.1612982374309	713.9217053096894	0.0	1918.53601082896	709.601902105245	0.0	1901.7975811747438	487.53404362895634	0.0	1876.8327278608285	584.5917654999082	0.0	1908.4226841501943	690.3102095047584	0.0	1876.4671368222002	719.0332584853061	0.0	1892.5802731306096	718.2254285278556	0.0	1918.3308884540538	706.969286327782	0.0	1875.640910709501	322.9580915740914	0.0	1851.3912913014328	256.69593493911987	0.0	1841.1620541963034	295.40115873379284	0.0	1848.5869877218283	348.19723303991964	0.0	1848.0783907663624	419.3235019814124	0.0	1827.44136976283	468.6522002563488	0.0	1911.5125115201358	340.26744270185316	0.0	1913.5431153962174	407.10051002724265	0.0	1911.9176032971563	478.247155167737	0.0
